# xmcd
#
# Track frame offsets: 
#        150
#        17551
#        37563
#        54847
#        71562
#        88746
#        111022
#        129168
#        148441
#        166816
#        180541
#
# Disc length: 2589 seconds
#
# Revision: 1
# Processed by: cddbd v1.5.2PL0 Copyright (c) Steve Scherf et al.
# Submitted via: ExactAudioCopy v0.99pb1
#
DISCID=840a1b0b
DTITLE=Jaheim - Ghetto Classics
DYEAR=2006
DGENRE=R&B
TTITLE0=The Chosen One
TTITLE1=Everytime I Think About Her - Feat. Jadakiss
TTITLE2=Daddy Thing 
TTITLE3=Forgetful 
TTITLE4=Like A DJ 
TTITLE5=Fiend - Featuring Styles P 
TTITLE6=I Ain't Never
TTITLE7=125th 
TTITLE8=Masterpiece 
TTITLE9=Conversation 
TTITLE10=Come Over 
EXTD=YEAR: 2006
EXTT0=
EXTT1=
EXTT2=
EXTT3=
EXTT4=
EXTT5=
EXTT6=
EXTT7=
EXTT8=
EXTT9=
EXTT10=
PLAYORDER=
